/* XPM */
static char * W3d_protobluewall1_xpm[] = {
"64 64 256 2",
"  	c #000000",
". 	c #0000A8",
"+ 	c #00A800",
"@ 	c #00A8A8",
"# 	c #A80000",
"$ 	c #A800A8",
"% 	c #A85400",
"& 	c #A8A8A8",
"* 	c #545454",
"= 	c #5454FC",
"- 	c #54FC54",
"; 	c #54FCFC",
"> 	c #FC5454",
", 	c #FC54FC",
"' 	c #FCFC54",
") 	c #FCFCFC",
"! 	c #ECECEC",
"~ 	c #DCDCDC",
"{ 	c #D0D0D0",
"] 	c #C0C0C0",
"^ 	c #B4B4B4",
"/ 	c #A8A8A8",
"( 	c #989898",
"_ 	c #8C8C8C",
": 	c #7C7C7C",
"< 	c #707070",
"[ 	c #646464",
"} 	c #545454",
"| 	c #484848",
"1 	c #383838",
"2 	c #2C2C2C",
"3 	c #202020",
"4 	c #FC0000",
"5 	c #EC0000",
"6 	c #E00000",
"7 	c #D40000",
"8 	c #C80000",
"9 	c #BC0000",
"0 	c #B00000",
"a 	c #A40000",
"b 	c #980000",
"c 	c #880000",
"d 	c #7C0000",
"e 	c #700000",
"f 	c #640000",
"g 	c #580000",
"h 	c #4C0000",
"i 	c #400000",
"j 	c #FCD8D8",
"k 	c #FCB8B8",
"l 	c #FC9C9C",
"m 	c #FC7C7C",
"n 	c #FC5C5C",
"o 	c #FC4040",
"p 	c #FC2020",
"q 	c #FC0000",
"r 	c #FCA85C",
"s 	c #FC9840",
"t 	c #FC8820",
"u 	c #FC7800",
"v 	c #E46C00",
"w 	c #CC6000",
"x 	c #B45400",
"y 	c #9C4C00",
"z 	c #FCFCD8",
"A 	c #FCFCB8",
"B 	c #FCFC9C",
"C 	c #FCFC7C",
"D 	c #FCF85C",
"E 	c #FCF440",
"F 	c #FCF420",
"G 	c #FCF400",
"H 	c #E4D800",
"I 	c #CCC400",
"J 	c #B4AC00",
"K 	c #9C9C00",
"L 	c #848400",
"M 	c #706C00",
"N 	c #585400",
"O 	c #404000",
"P 	c #D0FC5C",
"Q 	c #C4FC40",
"R 	c #B4FC20",
"S 	c #A0FC00",
"T 	c #90E400",
"U 	c #80CC00",
"V 	c #74B400",
"W 	c #609C00",
"X 	c #D8FCD8",
"Y 	c #BCFCB8",
"Z 	c #9CFC9C",
"` 	c #80FC7C",
" .	c #60FC5C",
"..	c #40FC40",
"+.	c #20FC20",
"@.	c #00FC00",
"#.	c #00FC00",
"$.	c #00EC00",
"%.	c #00E000",
"&.	c #00D400",
"*.	c #04C800",
"=.	c #04BC00",
"-.	c #04B000",
";.	c #04A400",
">.	c #049800",
",.	c #048800",
"'.	c #047C00",
").	c #047000",
"!.	c #046400",
"~.	c #045800",
"{.	c #044C00",
"].	c #044000",
"^.	c #D8FCFC",
"/.	c #B8FCFC",
"(.	c #9CFCFC",
"_.	c #7CFCF8",
":.	c #5CFCFC",
"<.	c #40FCFC",
"[.	c #20FCFC",
"}.	c #00FCFC",
"|.	c #00E4E4",
"1.	c #00CCCC",
"2.	c #00B4B4",
"3.	c #009C9C",
"4.	c #008484",
"5.	c #007070",
"6.	c #005858",
"7.	c #004040",
"8.	c #5CBCFC",
"9.	c #40B0FC",
"0.	c #20A8FC",
"a.	c #009CFC",
"b.	c #008CE4",
"c.	c #007CCC",
"d.	c #006CB4",
"e.	c #005C9C",
"f.	c #D8D8FC",
"g.	c #B8BCFC",
"h.	c #9C9CFC",
"i.	c #7C80FC",
"j.	c #5C60FC",
"k.	c #4040FC",
"l.	c #2024FC",
"m.	c #0004FC",
"n.	c #0000FC",
"o.	c #0000EC",
"p.	c #0000E0",
"q.	c #0000D4",
"r.	c #0000C8",
"s.	c #0000BC",
"t.	c #0000B0",
"u.	c #0000A4",
"v.	c #000098",
"w.	c #000088",
"x.	c #00007C",
"y.	c #000070",
"z.	c #000064",
"A.	c #000058",
"B.	c #00004C",
"C.	c #000040",
"D.	c #282828",
"E.	c #FCE034",
"F.	c #FCD424",
"G.	c #FCCC18",
"H.	c #FCC008",
"I.	c #FCB400",
"J.	c #B420FC",
"K.	c #A800FC",
"L.	c #9800E4",
"M.	c #8000CC",
"N.	c #7400B4",
"O.	c #60009C",
"P.	c #500084",
"Q.	c #440070",
"R.	c #340058",
"S.	c #280040",
"T.	c #FCD8FC",
"U.	c #FCB8FC",
"V.	c #FC9CFC",
"W.	c #FC7CFC",
"X.	c #FC5CFC",
"Y.	c #FC40FC",
"Z.	c #FC20FC",
"`.	c #FC00FC",
" +	c #E000E4",
".+	c #C800CC",
"++	c #B400B4",
"@+	c #9C009C",
"#+	c #840084",
"$+	c #6C0070",
"%+	c #580058",
"&+	c #400040",
"*+	c #FCE8DC",
"=+	c #FCE0D0",
"-+	c #FCD8C4",
";+	c #FCD4BC",
">+	c #FCCCB0",
",+	c #FCC4A4",
"'+	c #FCBC9C",
")+	c #FCB890",
"!+	c #FCB080",
"~+	c #FCA470",
"{+	c #FC9C60",
"]+	c #F0945C",
"^+	c #E88C58",
"/+	c #DC8854",
"(+	c #D08050",
"_+	c #C87C4C",
":+	c #BC7848",
"<+	c #B47044",
"[+	c #A86840",
"}+	c #A0643C",
"|+	c #9C6038",
"1+	c #905C34",
"2+	c #885830",
"3+	c #80502C",
"4+	c #744C28",
"5+	c #6C4824",
"6+	c #5C4020",
"7+	c #543C1C",
"8+	c #483818",
"9+	c #403018",
"0+	c #382C14",
"a+	c #28200C",
"b+	c #600064",
"c+	c #006464",
"d+	c #006060",
"e+	c #00001C",
"f+	c #00002C",
"g+	c #302410",
"h+	c #480048",
"i+	c #500050",
"j+	c #000034",
"k+	c #1C1C1C",
"l+	c #4C4C4C",
"m+	c #5C5C5C",
"n+	c #404040",
"o+	c #303030",
"p+	c #343434",
"q+	c #D8F4F4",
"r+	c #B8E8E8",
"s+	c #9CDCDC",
"t+	c #74C8C8",
"u+	c #48C0C0",
"v+	c #20B4B4",
"w+	c #20B0B0",
"x+	c #00A4A4",
"y+	c #009898",
"z+	c #008C8C",
"A+	c #008484",
"B+	c #007C7C",
"C+	c #007878",
"D+	c #007474",
"E+	c #007070",
"F+	c #006C6C",
"G+	c #980088",
"1 z.z.z.z.z.z.z.z.z.z.z.z.z.z.z.z.z.z.z.z.z.z.z.z.z.z.z.1 1 z.z.z.z.z.z.z.z.z.z.z.z.z.1 1 z.z.z.z.z.z.z.z.z.z.z.z.1 z.z.z.z.z.1 ",
"3 z.z.z.z.z.z.z.z.z.z.z.z.z.z.z.z.z.z.z.z.z.A.A.A.B.C.C.3 3 z.z.z.z.z.z.z.z.A.B.B.B.B.3 3 z.z.z.z.z.z.z.z.B.B.3 3 3 y.y.y.y.A.3 ",
"  z.z.z.B.z.C.z.z.A.C.y.y.C.z.z.z.C.C.z.B.C.C.C.C.3 3 3     z.z.A.A.B.z.z.A.B.B.B.B.3     z.x.y.x.y.x.x.x.x.x.A.C.  y.y.B.A.B.  ",
"  z.A.C.B.A.x.x.A.z.z.y.y.y.z.z.z.B.C.C.A.A.C.C.C.C.3 3     z.A.z.z.B.A.A.C.B.C.z.3 3     z.y.x.x.z.x.w.y.x.z.A.C.  z.z.y.A.3   ",
"  z.B.z.C.A.x.x.x.A.A.A.y.y.C.z.z.z.A.C.C.3 C.B.B.B.C.3     z.A.B.B.A.A.C.B.C.3 3 3 3     z.x.y.z.w.x.y.z.A.B.B.3   B.3 C.C.3   ",
"  z.B.C.z.A.A.x.x.A.C.A.z.C.A.A.z.z.C.B.B.3 C.B.B.B.C.3     z.z.B.z.z.C.3 3 3 B.C.3 3     z.x.z.w.t.w.z.x.z.A.3 C.  A.B.3 3 3   ",
"  z.A.A.z.z.C.A.z.A.C.A.A.C.A.A.A.C.C.B.B.C.3 C.C.C.C.3     z.z.z.B.B.C.3 B.B.B.3 C.3     z.y.x.z.x.x.z.z.y.C.C.3   A.C.3 3 3   ",
"  z.z.A.z.z.z.C.A.C.C.A.A.A.B.A.A.B.C.C.C.C.C.3 3 3 3 3     z.z.B.C.B.B.B.C.B.C.3 3 3     z.y.x.y.z.y.y.y.z.C.3 C.  A.3 3 3 3   ",
"  z.A.C.A.z.z.B.A.C.B.C.A.A.C.B.B.B.C.B.C.C.C.3 C.3 3 3     z.A.B.B.3 B.z.z.C.3 C.3 3     z.y.w.y.y.x.z.z.z.A.3 3               ",
"  z.B.B.B.z.C.C.C.A.A.B.C.C.C.C.3 B.3 C.C.C.3 C.3 C.3 3     z.B.B.3 C.C.B.B.3 3 3 3 3     z.y.x.z.y.z.z.B.A.B.3 3   A.y.y.y.z.  ",
"  A.C.B.z.B.B.B.B.A.A.A.B.C.B.C.C.3 C.3 C.3 C.C.C.3 3 3     A.B.C.C.3 B.B.3 C.3 3 3 3     z.y.x.x.z.x.z.B.B.C.3 3   z.y.A.y.B.  ",
"  A.B.A.C.C.z.B.B.C.A.A.B.C.C.C.C.3 B.3 3 C.C.C.C.3 3 3     A.B.C.3 C.3 B.3 3 3 3 3       z.y.x.x.y.z.B.z.A.C.3 3   A.z.B.A.3   ",
"  A.C.A.C.3 B.B.C.3 C.3 C.3 3 C.C.3 3 3 3 3 3 3 3 3 3       A.C.B.C.C.C.3 3 3 3 3 3 3     z.y.x.x.z.A.A.C.B.C.C.3   A.z.A.3 3   ",
"  A.A.C.C.C.3 3 3 3 3 C.3 3 3 3 3 3 3 3 3 3 3 3   3   3     B.B.3 3 C.C.3 3 3 3 3         z.y.z.x.B.A.B.A.C.C.C.3   B.B.C.3 3   ",
"  A.C.A.3 3 3 3 C.3 3 3 3 3 3   3     3 3   3   3           B.3 B.3 3 3 3 3 3 3   3       A.x.y.x.x.B.z.B.3 C.C.3   C.3 3 3 3   ",
"                                                                                          A.x.y.z.A.A.B.B.3 3 3 3               ",
"z.x.y.z.y.z.z.z.z.z.y.z.z.z.z.                                                            A.y.x.A.x.C.A.C.C.3 3 3   3 w.w.w.w.w.",
"x.y.z.A.z.x.y.z.B.z.z.C.z.A.C.      3 C.A.C.A.A.z.z.C.C.3 3           3 3 A.A.z.B.C.3 3   A.x.y.x.A.A.w.A.C.3 3 3   B.w.w.u.x.w.",
"x.y.A.A.B.B.B.A.C.A.A.C.C.A.A.    3 C.A.A.A.A.z.y.z.z.B.3 3 3   3     3 A.z.C.B.C.B.C.3   A.A.z.y.x.A.A.C.C.3 3 3   z.w.u.s.u.y.",
"y.z.A.z.z.B.B.B.A.C.A.C.C.C.C.    A.A.A.y.z.y.y.C.B.A.3 3 3   3       C.z.C.3 3 C.3 3 C.  B.y.y.x.y.A.B.C.3 C.3 3   z.w.w.u.y.w.",
"z.B.A.y.x.B.C.C.B.A.C.A.C.C.C.    y.A.y.B.y.z.C.3 3 C.3 3 3 3   C.    B.B.z.C.3 3 3 3 3   B.x.y.y.z.A.B.C.C.3 C.3   y.w.w.y.z.y.",
"z.z.B.A.y.B.C.B.C.C.z.A.B.C.C.    z.z.y.y.z.y.A.3 C.3 3 3 3 3 3 3     3 z.B.B.3 3 C.3 3   C.z.z.z.z.B.C.C.B.C.3 3   x.w.w.y.w.z.",
"y.B.C.B.A.z.A.C.C.A.z.z.A.C.C.  3 z.y.y.z.w.A.B.C.3 3 3 3 3 3 3 3     3 3 3 3 3 3 3 3 3   C.A.z.z.B.3 C.B.B.B.C.3   y.w.y.x.y.z.",
"y.z.B.y.y.y.C.A.A.C.B.z.z.C.3   3 A.z.z.B.C.B.B.3 3 C.3 3 3 3 3 3                         C.A.A.x.C.C.3 C.B.C.C.3   y.w.y.z.A.x.",
"y.y.A.B.y.y.A.A.A.C.C.3 C.C.3   3 A.z.B.C.A.B.3 3 3 3 A.3 C.3 C.3   z.z.x.x.z.z.A.A.B.    A.A.z.A.A.C.3 3 C.C.C.3   z.w.w.y.w.w.",
"y.z.B.C.B.B.C.3 C.A.C.3 C.C.C.  3 A.B.C.y.z.A.C.3 C.B.w.y.B.3 3 3   z.x.x.z.A.B.3 B.C.    A.x.y.z.A.C.C.3 3 3 3 3   z.w.y.w.x.y.",
"z.A.C.B.y.A.C.B.A.C.3 C.3 C.C.  3 B.B.C.A.y.A.A.B.B.A.y.B.C.C.3 C.  z.A.z.z.B.3 z.3 3     z.x.y.x.z.A.B.3 C.C.3 3   z.w.w.w.y.z.",
"y.A.y.A.A.C.y.B.C.C.3 3 3   3     C.C.B.y.t.y.B.z.A.C.A.B.3 B.3 C.  z.z.A.C.B.z.B.3 3     z.y.z.x.z.A.C.3 C.C.C.3   B.w.w.w.y.y.",
"z.B.B.C.C.y.y.y.B.C.C.3 C.3 3     C.C.B.A.y.z.z.A.z.z.B.A.C.3 C.3   z.z.z.A.z.3 3 B.3     z.z.A.z.B.A.B.C.3 C.C.3   B.w.y.w.w.z.",
"z.A.B.C.A.B.y.y.A.B.3 C.3 3 3     C.B.A.z.B.z.B.z.y.3 y.3 3 3 3 3   z.w.y.z.B.3 3 3 3     z.A.z.B.C.C.C.C.3 3 3 3   B.w.w.x.y.y.",
"A.B.A.A.B.C.B.A.A.B.3 C.3 3       3 C.C.A.C.A.z.A.z.y.3 3 3 C.3 3   z.A.y.z.B.3 3 3 3     z.A.x.z.A.B.3 3 3 3 3 3   B.w.w.y.A.z.",
"A.B.B.C.B.B.C.B.C.C.C.3 3 3 3     3 3 C.C.C.C.A.z.3 C.A.3 C.3 3 3   z.A.A.z.C.3 3 3 3     z.z.y.x.z.B.C.3 C.C.3 3   B.w.y.w.y.A.",
"A.B.z.A.3 C.C.3 C.C.3 3 3 3           3 3 3 3 3 3 3 3 3 3 3 3 3     z.A.z.3 3 C.3 3 3     z.z.y.y.z.z.A.C.3 C.3 3   B.w.y.w.B.B.",
"A.z.A.B.B.C.3 C.3 3 C.3 3   3                                       z.z.B.C.3 3 3 3 3     z.x.x.z.A.A.A.A.B.3 3 3   B.w.w.B.A.B.",
"C.A.A.B.C.C.C.C.C.3 3 3 3 3         3 3 3 3 3 3 3 3 3 3 3 3 3 3     z.B.B.3 3 C.C.3 3     z.x.x.z.A.C.A.A.B.C.3 3   3 w.y.w.A.A.",
"C.B.B.C.3 C.C.C.C.3   3 3   3       3 3 C.A.A.C.A.B.B.C.C.3 3 3     z.z.B.C.3 C.C.C.3     z.A.x.A.x.C.3 B.C.3 C.3   3 w.y.A.A.B.",
"C.B.3 3 C.3 C.C.C.3 3 3 3 3         3 C.A.A.B.A.C.3 B.3 3 B.3 3     z.z.C.A.3 3 C.C.3     z.z.z.y.A.A.C.C.3 C.3 3   3 y.y.A.B.B.",
"C.A.C.3 C.3 3 3 3   3 3     3       3 A.B.3 A.A.3 B.3 3 3 A.3 3     z.z.A.z.C.3 3 C.3     z.x.z.A.A.3 C.3 C.3 C.3   3 y.A.B.A.B.",
"C.B.A.B.3 C.3 3 3 3 3     3         3 A.C.A.C.C.A.3 B.3 3 3 3 3     z.A.z.A.B.C.3 3 3     z.x.A.z.A.3 3 3 3 C.3 3   3 y.A.A.A.B.",
"C.A.B.C.3 3 C.3 3 3   3             3 B.A.A.C.3 3 3 3 3 3 3 3 3     z.z.B.C.C.3 3 3 3     A.y.A.A.C.C.3 3 3 3 3 3   3 A.A.A.C.A.",
"                                    3 A.B.C.3 3 3 3 3 3 3 3 3 3     A.A.C.C.3 3 3 3 3     A.z.A.C.3 C.3 3 3 3 3 3               ",
"            3 3 3 3 B.B.B.C.3 3 3 3                                 A.z.C.3 3 3 3 3 3     B.C.3 3 3 3 3 3 3 3 3 3     3 3 3 3   ",
"    A.z.y.x.x.x.x.x.x.x.x.x.x.x.x.y.y.y.z.z.A.A.C.                  A.A.C.3 C.C.3 3 3     B.C.3 3 3   3     3 3       3 3 C.3   ",
"    z.x.x.x.x.x.y.z.y.x.z.z.z.x.z.z.y.y.C.B.B.B.3     3 3 3 3 3     A.C.B.3 C.C.C.3 3                                 3 3 3 3   ",
"    z.x.y.y.z.y.y.x.x.x.w.z.x.x.x.y.z.B.y.z.C.3 3     3 A.B.y.C.    B.C.B.3 3 C.C.3 3                                           ",
"    x.x.x.y.y.y.A.A.y.w.x.x.A.y.B.z.B.C.z.z.z.B.3     3 z.y.A.3     C.C.3 3 3 3 3 3 3       x.x.x.x.x.x.x.x.x.x.x.x.x.y.y.y.z.  ",
"    x.z.y.z.y.y.A.A.A.x.x.w.B.B.z.C.3 C.B.z.z.B.3     3 y.y.z.B.                            x.x.x.x.y.y.z.z.y.y.y.z.z.y.x.z.B.  ",
"    x.x.y.w.w.y.z.A.A.z.A.x.x.z.z.z.C.3 C.B.B.B.3     3 z.B.3 3     B.A.z.y.z.z.z.A.B.B.    x.y.y.x.y.z.A.z.z.y.z.A.x.x.A.A.B.  ",
"    x.x.A.w.w.w.B.z.z.y.y.C.z.z.v.z.A.3 3 3 3 3 3     3 A.3 3 3     A.z.y.z.A.y.A.y.3 3     x.x.y.y.z.x.x.A.z.y.A.B.C.A.3 B.C.  ",
"    x.x.x.x.w.w.x.B.y.z.C.z.B.z.z.A.C.A.A.C.3 3 3     3 B.3 3 3     z.y.y.z.B.C.B.3 3 3     x.y.x.y.z.y.y.z.y.z.A.A.z.C.C.C.3   ",
"    x.z.x.A.z.z.x.y.A.A.A.x.z.z.3 C.A.C.C.3 3 C.3                   A.z.B.B.C.3 3 3 3 3     x.x.y.y.z.z.A.z.A.A.B.z.B.B.A.3 3   ",
"    x.y.A.A.x.w.x.z.B.z.B.B.z.z.C.C.C.A.3 C.C.3 3                                           x.y.z.z.A.A.x.y.z.A.y.C.3 A.A.3 3   ",
"    x.z.x.z.w.t.w.A.A.z.A.B.C.B.z.C.3 C.3 C.C.C.3     A.A.A.z.z.z.z.z.z.z.A.A.A.B.B.3 3     x.y.z.A.A.y.z.A.C.A.C.B.A.A.C.3 C.  ",
"    x.y.x.z.x.w.x.z.C.z.z.B.A.A.C.C.C.3 3 C.C.C.3     A.z.A.B.z.B.A.z.z.B.A.z.C.C.3 3 3     x.z.z.y.A.B.A.B.z.B.C.B.z.B.3 C.3   ",
"    x.z.x.z.y.y.B.B.B.A.A.A.A.A.B.3 C.3 C.3 3 3 3     A.A.B.B.B.z.z.z.y.A.B.B.B.3 C.C.3     x.x.z.A.A.B.B.C.B.A.A.A.B.3 C.C.3   ",
"    z.x.z.A.z.C.C.z.B.z.A.A.C.B.3 C.3 C.3 C.3 3 3     z.B.z.z.y.A.z.A.z.z.z.A.B.C.C.C.3     x.y.z.A.C.C.C.3 C.B.A.C.3 3 3 3 C.  ",
"    x.z.x.y.B.B.y.C.C.z.z.A.C.C.C.C.C.3 C.3 3 3 3     z.z.B.z.A.B.C.B.A.z.z.A.B.C.3 3 3     x.y.x.y.z.B.3 3 3 C.C.C.3 C.3 3 3   ",
"    x.z.x.z.A.B.C.3 B.3 C.3 3 3 C.C.C.C.3 3 C.C.3     A.B.z.A.B.z.C.B.A.A.A.B.C.3 3 3 3     x.x.z.z.C.C.A.C.3 3 C.C.C.3 3 3 3   ",
"    y.z.B.B.B.z.z.B.3 B.3 C.3 C.3 C.C.C.B.3 C.C.3     A.z.B.C.C.C.B.3 C.C.B.C.C.C.3 3 3     y.A.z.A.x.A.C.C.3 C.3 C.3 C.3 3 3   ",
"    y.z.3 3 B.A.z.A.C.A.C.3 C.3 3 C.C.C.C.3 3 3 3     B.A.z.C.3 C.3 C.3 C.C.3 C.C.C.3 3     y.x.z.C.A.3 3 C.3 3 3 3 C.3 C.3 3   ",
"    z.z.B.B.3 B.A.A.C.C.C.C.3 3 C.C.3 C.3 3 3 3 3     B.A.B.C.3 3 C.3 C.C.3 C.3 C.3 3 3     z.C.A.C.B.A.C.3 C.3 3 3 3 3 3 3 3   ",
"3 3 z.A.C.B.A.3 3 C.3 C.C.C.3 3 C.C.3 3 3 3 3 3 3 3 3 B.C.3 C.3 3 3 3 3 3 C.3 3 3 3 3 3 3 3 z.A.C.B.C.C.3 C.3 3 3 3 3 3 3 3 3 3 ",
"2 2 A.C.3 B.3 B.3 3 3 3 3 3 3 3 3 2 2 2 2 2 2 2 3 2 2 B.B.C.3 3 3 3 3 3 2 2 2 2 2 2 2 2 2 2 B.C.3 3 3 3 C.3 3 3 3 3 3 2 2 2 2 2 ",
"1 1 y.x.x.x.x.x.x.x.x.x.1 1 1 1 1 | | | | | | | 1 1 1 y.x.x.x.x.x.x.x.1 | | | | | | | | 1 1 y.x.x.x.x.x.z.z.z.1 1 1 1 | | | | 1 "};
